<svg xmlns="http://www.w3.org/2000/svg" xmlns:xlink="http://www.w3.org/1999/xlink" width="120" zoomAndPan="magnify" viewBox="0 0 90 44.999999" height="60" preserveAspectRatio="xMidYMid meet" version="1.0"><defs><g/><clipPath id="7a17c39c72"><path d="M 0 19.695312 L 90 19.695312 L 90 25.304688 L 0 25.304688 Z M 0 19.695312 " clip-rule="nonzero"/></clipPath></defs><g fill="#0b2350" fill-opacity="1"><g transform="translate(17.809901, 31.097209)"><g><path d="M 13.203125 0 L 3.25 -15.234375 L 3.375 0 L 1.796875 0 L 1.796875 -17.484375 L 3.625 -17.484375 L 13.5625 -2.25 L 13.453125 -17.484375 L 15.03125 -17.484375 L 15.03125 0 Z M 13.203125 0 "/></g></g></g><g fill="#0b2350" fill-opacity="1"><g transform="translate(34.662642, 31.097209)"><g/></g></g><g fill="#0b2350" fill-opacity="1"><g transform="translate(42.127782, 31.097209)"><g><path d="M 6.4375 0 L 1.75 0 L 1.75 -1.203125 L 3.25 -1.375 L 3.25 -16.078125 L 1.875 -16.25 L 1.875 -17.484375 L 6.3125 -17.484375 L 6.3125 -16.25 L 4.9375 -16.078125 L 4.9375 -1.375 L 6.4375 -1.203125 Z M 6.4375 0 "/></g></g></g><g fill="#0b2350" fill-opacity="1"><g transform="translate(50.816306, 31.097209)"><g/></g></g><g fill="#0b2350" fill-opacity="1"><g transform="translate(58.281445, 31.097209)"><g><path d="M 11.640625 -17.03125 L 11.328125 -15.609375 C 10.046875 -15.890625 8.957031 -16.03125 8.0625 -16.03125 C 4.832031 -16.03125 3.21875 -15.046875 3.21875 -13.078125 C 3.21875 -12.328125 3.453125 -11.753906 3.921875 -11.359375 C 4.398438 -10.960938 5 -10.632812 5.71875 -10.375 C 6.445312 -10.113281 7.226562 -9.878906 8.0625 -9.671875 C 8.894531 -9.460938 9.671875 -9.1875 10.390625 -8.84375 C 12.066406 -8.007812 12.90625 -6.734375 12.90625 -5.015625 C 12.90625 -3.304688 12.265625 -2.007812 10.984375 -1.125 C 9.890625 -0.351562 8.441406 0.03125 6.640625 0.03125 C 4.410156 0.03125 2.53125 -0.476562 1 -1.5 L 1.640625 -2.765625 C 2.097656 -2.453125 2.738281 -2.15625 3.5625 -1.875 C 4.394531 -1.601562 5.207031 -1.46875 6 -1.46875 C 7.53125 -1.46875 8.734375 -1.71875 9.609375 -2.21875 C 10.679688 -2.832031 11.21875 -3.71875 11.21875 -4.875 C 11.21875 -5.71875 10.976562 -6.375 10.5 -6.84375 C 10.019531 -7.320312 9.414062 -7.707031 8.6875 -8 C 7.96875 -8.289062 7.191406 -8.539062 6.359375 -8.75 C 5.535156 -8.957031 4.765625 -9.21875 4.046875 -9.53125 C 2.359375 -10.269531 1.515625 -11.363281 1.515625 -12.8125 C 1.515625 -14.257812 2.015625 -15.40625 3.015625 -16.25 C 4.015625 -17.101562 5.429688 -17.53125 7.265625 -17.53125 C 8.679688 -17.53125 10.140625 -17.363281 11.640625 -17.03125 Z M 11.640625 -17.03125 "/></g></g></g><g clip-path="url(#7a17c39c72)"><path fill="#ffffff" d="M -12.65625 19.695312 L 102.660156 19.695312 L 102.660156 25.304688 L -12.65625 25.304688 Z M -12.65625 19.695312 " fill-opacity="1" fill-rule="nonzero"/></g><g fill="#8698ab" fill-opacity="1"><g transform="translate(14.366408, 23.35701)"><g><path d="M 0.796875 -1.53125 L 0.796875 -0.234375 L 1.125 -0.234375 L 1.125 0 L 0.21875 0 L 0.21875 -0.234375 L 0.546875 -0.234375 L 0.546875 -1.53125 L 0.21875 -1.53125 L 0.21875 -1.765625 L 1.125 -1.765625 L 1.125 -1.53125 Z M 0.796875 -1.53125 "/></g></g></g><g fill="#8698ab" fill-opacity="1"><g transform="translate(17.691317, 23.35701)"><g><path d="M 0.21875 -1.75 L 0.40625 -1.75 L 1.265625 -0.515625 L 1.265625 -1.75 L 1.515625 -1.75 L 1.515625 0 L 1.3125 0 L 0.46875 -1.21875 L 0.46875 0 L 0.21875 0 Z M 0.21875 -1.75 "/></g></g></g><g fill="#8698ab" fill-opacity="1"><g transform="translate(21.412949, 23.35701)"><g><path d="M 1.09375 -1.296875 C 1.082031 -1.347656 1.054688 -1.390625 1.015625 -1.421875 C 0.984375 -1.453125 0.941406 -1.472656 0.890625 -1.484375 C 0.835938 -1.503906 0.785156 -1.515625 0.734375 -1.515625 C 0.679688 -1.515625 0.625 -1.503906 0.5625 -1.484375 C 0.5 -1.460938 0.453125 -1.429688 0.421875 -1.390625 C 0.398438 -1.367188 0.382812 -1.34375 0.375 -1.3125 C 0.375 -1.289062 0.375 -1.269531 0.375 -1.25 C 0.375 -1.1875 0.390625 -1.132812 0.421875 -1.09375 C 0.460938 -1.0625 0.515625 -1.039062 0.578125 -1.03125 C 0.640625 -1.019531 0.703125 -1.007812 0.765625 -1 C 0.828125 -1 0.890625 -0.988281 0.953125 -0.96875 C 1.015625 -0.957031 1.070312 -0.9375 1.125 -0.90625 C 1.1875 -0.882812 1.238281 -0.847656 1.28125 -0.796875 C 1.320312 -0.753906 1.351562 -0.695312 1.375 -0.625 C 1.382812 -0.582031 1.390625 -0.546875 1.390625 -0.515625 C 1.390625 -0.429688 1.367188 -0.351562 1.328125 -0.28125 C 1.296875 -0.21875 1.25 -0.164062 1.1875 -0.125 C 1.125 -0.0820312 1.050781 -0.046875 0.96875 -0.015625 C 0.894531 0.00390625 0.816406 0.015625 0.734375 0.015625 C 0.671875 0.015625 0.601562 0.00390625 0.53125 -0.015625 C 0.457031 -0.0351562 0.390625 -0.0625 0.328125 -0.09375 C 0.273438 -0.132812 0.226562 -0.1875 0.1875 -0.25 C 0.144531 -0.3125 0.117188 -0.378906 0.109375 -0.453125 L 0.109375 -0.5 L 0.359375 -0.515625 L 0.359375 -0.46875 L 0.359375 -0.484375 C 0.367188 -0.429688 0.390625 -0.382812 0.421875 -0.34375 C 0.460938 -0.3125 0.507812 -0.285156 0.5625 -0.265625 C 0.625 -0.242188 0.679688 -0.234375 0.734375 -0.234375 C 0.796875 -0.234375 0.859375 -0.242188 0.921875 -0.265625 C 0.984375 -0.285156 1.03125 -0.316406 1.0625 -0.359375 C 1.101562 -0.410156 1.125 -0.460938 1.125 -0.515625 C 1.125 -0.535156 1.125 -0.554688 1.125 -0.578125 C 1.113281 -0.617188 1.085938 -0.648438 1.046875 -0.671875 C 1.015625 -0.703125 0.96875 -0.722656 0.90625 -0.734375 C 0.851562 -0.742188 0.796875 -0.75 0.734375 -0.75 C 0.671875 -0.757812 0.601562 -0.769531 0.53125 -0.78125 C 0.457031 -0.800781 0.390625 -0.828125 0.328125 -0.859375 C 0.273438 -0.890625 0.226562 -0.929688 0.1875 -0.984375 C 0.144531 -1.035156 0.125 -1.109375 0.125 -1.203125 C 0.125 -1.210938 0.125 -1.21875 0.125 -1.21875 C 0.125 -1.226562 0.125 -1.238281 0.125 -1.25 C 0.125 -1.351562 0.15625 -1.445312 0.21875 -1.53125 C 0.269531 -1.613281 0.34375 -1.671875 0.4375 -1.703125 C 0.539062 -1.742188 0.644531 -1.765625 0.75 -1.765625 C 0.832031 -1.765625 0.914062 -1.75 1 -1.71875 C 1.09375 -1.6875 1.164062 -1.632812 1.21875 -1.5625 C 1.28125 -1.5 1.320312 -1.414062 1.34375 -1.3125 Z M 1.09375 -1.296875 "/></g></g></g><g fill="#8698ab" fill-opacity="1"><g transform="translate(24.895052, 23.35701)"><g><path d="M 0.796875 -1.53125 L 0.796875 -0.234375 L 1.125 -0.234375 L 1.125 0 L 0.21875 0 L 0.21875 -0.234375 L 0.546875 -0.234375 L 0.546875 -1.53125 L 0.21875 -1.53125 L 0.21875 -1.765625 L 1.125 -1.765625 L 1.125 -1.53125 Z M 0.796875 -1.53125 "/></g></g></g><g fill="#8698ab" fill-opacity="1"><g transform="translate(28.219961, 23.35701)"><g><path d="M 1.5625 -1.140625 C 1.53125 -1.234375 1.484375 -1.304688 1.421875 -1.359375 C 1.359375 -1.421875 1.285156 -1.460938 1.203125 -1.484375 C 1.128906 -1.503906 1.054688 -1.515625 0.984375 -1.515625 C 0.867188 -1.515625 0.765625 -1.488281 0.671875 -1.4375 C 0.578125 -1.382812 0.5 -1.304688 0.4375 -1.203125 C 0.382812 -1.109375 0.359375 -1 0.359375 -0.875 C 0.359375 -0.75 0.382812 -0.632812 0.4375 -0.53125 C 0.5 -0.4375 0.578125 -0.359375 0.671875 -0.296875 C 0.765625 -0.242188 0.867188 -0.21875 0.984375 -0.21875 C 1.054688 -0.21875 1.128906 -0.226562 1.203125 -0.25 C 1.273438 -0.28125 1.335938 -0.320312 1.390625 -0.375 C 1.453125 -0.4375 1.503906 -0.507812 1.546875 -0.59375 L 0.875 -0.59375 L 0.875 -0.859375 L 1.84375 -0.859375 C 1.832031 -0.785156 1.820312 -0.722656 1.8125 -0.671875 C 1.8125 -0.617188 1.804688 -0.578125 1.796875 -0.546875 C 1.753906 -0.429688 1.6875 -0.332031 1.59375 -0.25 C 1.507812 -0.164062 1.410156 -0.0976562 1.296875 -0.046875 C 1.191406 0.00390625 1.085938 0.03125 0.984375 0.03125 C 0.859375 0.03125 0.738281 0.0078125 0.625 -0.03125 C 0.519531 -0.0820312 0.425781 -0.144531 0.34375 -0.21875 C 0.269531 -0.300781 0.210938 -0.394531 0.171875 -0.5 C 0.128906 -0.613281 0.109375 -0.738281 0.109375 -0.875 C 0.109375 -1 0.128906 -1.117188 0.171875 -1.234375 C 0.210938 -1.347656 0.273438 -1.441406 0.359375 -1.515625 C 0.441406 -1.597656 0.535156 -1.660156 0.640625 -1.703125 C 0.742188 -1.753906 0.859375 -1.78125 0.984375 -1.78125 C 1.066406 -1.78125 1.148438 -1.765625 1.234375 -1.734375 C 1.328125 -1.710938 1.414062 -1.675781 1.5 -1.625 C 1.582031 -1.582031 1.648438 -1.519531 1.703125 -1.4375 C 1.765625 -1.351562 1.804688 -1.253906 1.828125 -1.140625 Z M 1.5625 -1.140625 "/></g></g></g><g fill="#8698ab" fill-opacity="1"><g transform="translate(32.191106, 23.35701)"><g><path d="M 1.203125 -1.0625 L 1.203125 -1.765625 L 1.46875 -1.765625 L 1.46875 0 L 1.203125 0 L 1.203125 -0.8125 L 0.46875 -0.8125 L 0.46875 0 L 0.21875 0 L 0.21875 -1.765625 L 0.46875 -1.765625 L 0.46875 -1.0625 Z M 1.203125 -1.0625 "/></g></g></g><g fill="#8698ab" fill-opacity="1"><g transform="translate(35.862836, 23.35701)"><g><path d="M 0.546875 -1.53125 L 0.015625 -1.53125 L 0.015625 -1.765625 L 1.328125 -1.765625 L 1.328125 -1.53125 L 0.796875 -1.53125 L 0.796875 0 L 0.546875 0 Z M 0.546875 -1.53125 "/></g></g></g><g fill="#8698ab" fill-opacity="1"><g transform="translate(39.20022, 23.35701)"><g><path d="M 1.09375 -1.296875 C 1.082031 -1.347656 1.054688 -1.390625 1.015625 -1.421875 C 0.984375 -1.453125 0.941406 -1.472656 0.890625 -1.484375 C 0.835938 -1.503906 0.785156 -1.515625 0.734375 -1.515625 C 0.679688 -1.515625 0.625 -1.503906 0.5625 -1.484375 C 0.5 -1.460938 0.453125 -1.429688 0.421875 -1.390625 C 0.398438 -1.367188 0.382812 -1.34375 0.375 -1.3125 C 0.375 -1.289062 0.375 -1.269531 0.375 -1.25 C 0.375 -1.1875 0.390625 -1.132812 0.421875 -1.09375 C 0.460938 -1.0625 0.515625 -1.039062 0.578125 -1.03125 C 0.640625 -1.019531 0.703125 -1.007812 0.765625 -1 C 0.828125 -1 0.890625 -0.988281 0.953125 -0.96875 C 1.015625 -0.957031 1.070312 -0.9375 1.125 -0.90625 C 1.1875 -0.882812 1.238281 -0.847656 1.28125 -0.796875 C 1.320312 -0.753906 1.351562 -0.695312 1.375 -0.625 C 1.382812 -0.582031 1.390625 -0.546875 1.390625 -0.515625 C 1.390625 -0.429688 1.367188 -0.351562 1.328125 -0.28125 C 1.296875 -0.21875 1.25 -0.164062 1.1875 -0.125 C 1.125 -0.0820312 1.050781 -0.046875 0.96875 -0.015625 C 0.894531 0.00390625 0.816406 0.015625 0.734375 0.015625 C 0.671875 0.015625 0.601562 0.00390625 0.53125 -0.015625 C 0.457031 -0.0351562 0.390625 -0.0625 0.328125 -0.09375 C 0.273438 -0.132812 0.226562 -0.1875 0.1875 -0.25 C 0.144531 -0.3125 0.117188 -0.378906 0.109375 -0.453125 L 0.109375 -0.5 L 0.359375 -0.515625 L 0.359375 -0.46875 L 0.359375 -0.484375 C 0.367188 -0.429688 0.390625 -0.382812 0.421875 -0.34375 C 0.460938 -0.3125 0.507812 -0.285156 0.5625 -0.265625 C 0.625 -0.242188 0.679688 -0.234375 0.734375 -0.234375 C 0.796875 -0.234375 0.859375 -0.242188 0.921875 -0.265625 C 0.984375 -0.285156 1.03125 -0.316406 1.0625 -0.359375 C 1.101562 -0.410156 1.125 -0.460938 1.125 -0.515625 C 1.125 -0.535156 1.125 -0.554688 1.125 -0.578125 C 1.113281 -0.617188 1.085938 -0.648438 1.046875 -0.671875 C 1.015625 -0.703125 0.96875 -0.722656 0.90625 -0.734375 C 0.851562 -0.742188 0.796875 -0.75 0.734375 -0.75 C 0.671875 -0.757812 0.601562 -0.769531 0.53125 -0.78125 C 0.457031 -0.800781 0.390625 -0.828125 0.328125 -0.859375 C 0.273438 -0.890625 0.226562 -0.929688 0.1875 -0.984375 C 0.144531 -1.035156 0.125 -1.109375 0.125 -1.203125 C 0.125 -1.210938 0.125 -1.21875 0.125 -1.21875 C 0.125 -1.226562 0.125 -1.238281 0.125 -1.25 C 0.125 -1.351562 0.15625 -1.445312 0.21875 -1.53125 C 0.269531 -1.613281 0.34375 -1.671875 0.4375 -1.703125 C 0.539062 -1.742188 0.644531 -1.765625 0.75 -1.765625 C 0.832031 -1.765625 0.914062 -1.75 1 -1.71875 C 1.09375 -1.6875 1.164062 -1.632812 1.21875 -1.5625 C 1.28125 -1.5 1.320312 -1.414062 1.34375 -1.3125 Z M 1.09375 -1.296875 "/></g></g></g><g fill="#8698ab" fill-opacity="1"><g transform="translate(42.682321, 23.35701)"><g/></g></g><g fill="#8698ab" fill-opacity="1"><g transform="translate(45.301114, 23.35701)"><g><path d="M 1.09375 -1.296875 C 1.082031 -1.347656 1.054688 -1.390625 1.015625 -1.421875 C 0.984375 -1.453125 0.941406 -1.472656 0.890625 -1.484375 C 0.835938 -1.503906 0.785156 -1.515625 0.734375 -1.515625 C 0.679688 -1.515625 0.625 -1.503906 0.5625 -1.484375 C 0.5 -1.460938 0.453125 -1.429688 0.421875 -1.390625 C 0.398438 -1.367188 0.382812 -1.34375 0.375 -1.3125 C 0.375 -1.289062 0.375 -1.269531 0.375 -1.25 C 0.375 -1.1875 0.390625 -1.132812 0.421875 -1.09375 C 0.460938 -1.0625 0.515625 -1.039062 0.578125 -1.03125 C 0.640625 -1.019531 0.703125 -1.007812 0.765625 -1 C 0.828125 -1 0.890625 -0.988281 0.953125 -0.96875 C 1.015625 -0.957031 1.070312 -0.9375 1.125 -0.90625 C 1.1875 -0.882812 1.238281 -0.847656 1.28125 -0.796875 C 1.320312 -0.753906 1.351562 -0.695312 1.375 -0.625 C 1.382812 -0.582031 1.390625 -0.546875 1.390625 -0.515625 C 1.390625 -0.429688 1.367188 -0.351562 1.328125 -0.28125 C 1.296875 -0.21875 1.25 -0.164062 1.1875 -0.125 C 1.125 -0.0820312 1.050781 -0.046875 0.96875 -0.015625 C 0.894531 0.00390625 0.816406 0.015625 0.734375 0.015625 C 0.671875 0.015625 0.601562 0.00390625 0.53125 -0.015625 C 0.457031 -0.0351562 0.390625 -0.0625 0.328125 -0.09375 C 0.273438 -0.132812 0.226562 -0.1875 0.1875 -0.25 C 0.144531 -0.3125 0.117188 -0.378906 0.109375 -0.453125 L 0.109375 -0.5 L 0.359375 -0.515625 L 0.359375 -0.46875 L 0.359375 -0.484375 C 0.367188 -0.429688 0.390625 -0.382812 0.421875 -0.34375 C 0.460938 -0.3125 0.507812 -0.285156 0.5625 -0.265625 C 0.625 -0.242188 0.679688 -0.234375 0.734375 -0.234375 C 0.796875 -0.234375 0.859375 -0.242188 0.921875 -0.265625 C 0.984375 -0.285156 1.03125 -0.316406 1.0625 -0.359375 C 1.101562 -0.410156 1.125 -0.460938 1.125 -0.515625 C 1.125 -0.535156 1.125 -0.554688 1.125 -0.578125 C 1.113281 -0.617188 1.085938 -0.648438 1.046875 -0.671875 C 1.015625 -0.703125 0.96875 -0.722656 0.90625 -0.734375 C 0.851562 -0.742188 0.796875 -0.75 0.734375 -0.75 C 0.671875 -0.757812 0.601562 -0.769531 0.53125 -0.78125 C 0.457031 -0.800781 0.390625 -0.828125 0.328125 -0.859375 C 0.273438 -0.890625 0.226562 -0.929688 0.1875 -0.984375 C 0.144531 -1.035156 0.125 -1.109375 0.125 -1.203125 C 0.125 -1.210938 0.125 -1.21875 0.125 -1.21875 C 0.125 -1.226562 0.125 -1.238281 0.125 -1.25 C 0.125 -1.351562 0.15625 -1.445312 0.21875 -1.53125 C 0.269531 -1.613281 0.34375 -1.671875 0.4375 -1.703125 C 0.539062 -1.742188 0.644531 -1.765625 0.75 -1.765625 C 0.832031 -1.765625 0.914062 -1.75 1 -1.71875 C 1.09375 -1.6875 1.164062 -1.632812 1.21875 -1.5625 C 1.28125 -1.5 1.320312 -1.414062 1.34375 -1.3125 Z M 1.09375 -1.296875 "/></g></g></g><g fill="#8698ab" fill-opacity="1"><g transform="translate(48.783215, 23.35701)"><g><path d="M 0.09375 -0.875 C 0.09375 -1 0.113281 -1.113281 0.15625 -1.21875 C 0.207031 -1.332031 0.273438 -1.429688 0.359375 -1.515625 C 0.441406 -1.597656 0.535156 -1.660156 0.640625 -1.703125 C 0.753906 -1.753906 0.875 -1.78125 1 -1.78125 C 1.125 -1.78125 1.238281 -1.753906 1.34375 -1.703125 C 1.457031 -1.660156 1.554688 -1.597656 1.640625 -1.515625 C 1.722656 -1.429688 1.785156 -1.332031 1.828125 -1.21875 C 1.878906 -1.113281 1.90625 -1 1.90625 -0.875 C 1.90625 -0.75 1.878906 -0.628906 1.828125 -0.515625 C 1.785156 -0.410156 1.722656 -0.316406 1.640625 -0.234375 C 1.554688 -0.148438 1.457031 -0.0820312 1.34375 -0.03125 C 1.238281 0.0078125 1.125 0.03125 1 0.03125 C 0.875 0.03125 0.753906 0.0078125 0.640625 -0.03125 C 0.535156 -0.0820312 0.441406 -0.148438 0.359375 -0.234375 C 0.273438 -0.316406 0.207031 -0.410156 0.15625 -0.515625 C 0.113281 -0.628906 0.09375 -0.75 0.09375 -0.875 Z M 0.34375 -0.875 C 0.34375 -0.75 0.367188 -0.640625 0.421875 -0.546875 C 0.484375 -0.453125 0.5625 -0.375 0.65625 -0.3125 C 0.757812 -0.257812 0.875 -0.234375 1 -0.234375 C 1.113281 -0.234375 1.21875 -0.257812 1.3125 -0.3125 C 1.414062 -0.375 1.492188 -0.453125 1.546875 -0.546875 C 1.609375 -0.640625 1.640625 -0.75 1.640625 -0.875 C 1.640625 -1 1.609375 -1.109375 1.546875 -1.203125 C 1.492188 -1.296875 1.414062 -1.375 1.3125 -1.4375 C 1.21875 -1.5 1.113281 -1.53125 1 -1.53125 C 0.875 -1.53125 0.757812 -1.5 0.65625 -1.4375 C 0.5625 -1.375 0.484375 -1.296875 0.421875 -1.203125 C 0.367188 -1.109375 0.34375 -1 0.34375 -0.875 Z M 0.34375 -0.875 "/></g></g></g><g fill="#8698ab" fill-opacity="1"><g transform="translate(52.786796, 23.35701)"><g><path d="M 1.296875 -0.25 L 1.296875 0 L 0.21875 0 L 0.21875 -1.75 L 0.46875 -1.75 L 0.46875 -0.25 Z M 1.296875 -0.25 "/></g></g></g><g fill="#8698ab" fill-opacity="1"><g transform="translate(56.084259, 23.35701)"><g><path d="M 0.84375 0.015625 C 0.757812 0.015625 0.679688 0.00390625 0.609375 -0.015625 C 0.535156 -0.0351562 0.46875 -0.0664062 0.40625 -0.109375 C 0.34375 -0.160156 0.289062 -0.21875 0.25 -0.28125 C 0.207031 -0.351562 0.1875 -0.4375 0.1875 -0.53125 L 0.1875 -1.765625 L 0.453125 -1.765625 L 0.453125 -0.515625 C 0.453125 -0.453125 0.46875 -0.398438 0.5 -0.359375 C 0.539062 -0.316406 0.59375 -0.285156 0.65625 -0.265625 C 0.71875 -0.242188 0.78125 -0.234375 0.84375 -0.234375 C 0.90625 -0.234375 0.960938 -0.242188 1.015625 -0.265625 C 1.078125 -0.285156 1.128906 -0.316406 1.171875 -0.359375 C 1.210938 -0.410156 1.234375 -0.46875 1.234375 -0.53125 L 1.234375 -1.765625 L 1.484375 -1.765625 L 1.484375 -0.515625 C 1.484375 -0.429688 1.460938 -0.351562 1.421875 -0.28125 C 1.390625 -0.21875 1.34375 -0.160156 1.28125 -0.109375 C 1.21875 -0.0664062 1.144531 -0.0351562 1.0625 -0.015625 C 0.988281 0.00390625 0.914062 0.015625 0.84375 0.015625 Z M 0.84375 0.015625 "/></g></g></g><g fill="#8698ab" fill-opacity="1"><g transform="translate(59.755991, 23.35701)"><g><path d="M 0.546875 -1.53125 L 0.015625 -1.53125 L 0.015625 -1.765625 L 1.328125 -1.765625 L 1.328125 -1.53125 L 0.796875 -1.53125 L 0.796875 0 L 0.546875 0 Z M 0.546875 -1.53125 "/></g></g></g><g fill="#8698ab" fill-opacity="1"><g transform="translate(63.093375, 23.35701)"><g><path d="M 0.796875 -1.53125 L 0.796875 -0.234375 L 1.125 -0.234375 L 1.125 0 L 0.21875 0 L 0.21875 -0.234375 L 0.546875 -0.234375 L 0.546875 -1.53125 L 0.21875 -1.53125 L 0.21875 -1.765625 L 1.125 -1.765625 L 1.125 -1.53125 Z M 0.796875 -1.53125 "/></g></g></g><g fill="#8698ab" fill-opacity="1"><g transform="translate(66.418285, 23.35701)"><g><path d="M 0.09375 -0.875 C 0.09375 -1 0.113281 -1.113281 0.15625 -1.21875 C 0.207031 -1.332031 0.273438 -1.429688 0.359375 -1.515625 C 0.441406 -1.597656 0.535156 -1.660156 0.640625 -1.703125 C 0.753906 -1.753906 0.875 -1.78125 1 -1.78125 C 1.125 -1.78125 1.238281 -1.753906 1.34375 -1.703125 C 1.457031 -1.660156 1.554688 -1.597656 1.640625 -1.515625 C 1.722656 -1.429688 1.785156 -1.332031 1.828125 -1.21875 C 1.878906 -1.113281 1.90625 -1 1.90625 -0.875 C 1.90625 -0.75 1.878906 -0.628906 1.828125 -0.515625 C 1.785156 -0.410156 1.722656 -0.316406 1.640625 -0.234375 C 1.554688 -0.148438 1.457031 -0.0820312 1.34375 -0.03125 C 1.238281 0.0078125 1.125 0.03125 1 0.03125 C 0.875 0.03125 0.753906 0.0078125 0.640625 -0.03125 C 0.535156 -0.0820312 0.441406 -0.148438 0.359375 -0.234375 C 0.273438 -0.316406 0.207031 -0.410156 0.15625 -0.515625 C 0.113281 -0.628906 0.09375 -0.75 0.09375 -0.875 Z M 0.34375 -0.875 C 0.34375 -0.75 0.367188 -0.640625 0.421875 -0.546875 C 0.484375 -0.453125 0.5625 -0.375 0.65625 -0.3125 C 0.757812 -0.257812 0.875 -0.234375 1 -0.234375 C 1.113281 -0.234375 1.21875 -0.257812 1.3125 -0.3125 C 1.414062 -0.375 1.492188 -0.453125 1.546875 -0.546875 C 1.609375 -0.640625 1.640625 -0.75 1.640625 -0.875 C 1.640625 -1 1.609375 -1.109375 1.546875 -1.203125 C 1.492188 -1.296875 1.414062 -1.375 1.3125 -1.4375 C 1.21875 -1.5 1.113281 -1.53125 1 -1.53125 C 0.875 -1.53125 0.757812 -1.5 0.65625 -1.4375 C 0.5625 -1.375 0.484375 -1.296875 0.421875 -1.203125 C 0.367188 -1.109375 0.34375 -1 0.34375 -0.875 Z M 0.34375 -0.875 "/></g></g></g><g fill="#8698ab" fill-opacity="1"><g transform="translate(70.421866, 23.35701)"><g><path d="M 0.21875 -1.75 L 0.40625 -1.75 L 1.265625 -0.515625 L 1.265625 -1.75 L 1.515625 -1.75 L 1.515625 0 L 1.3125 0 L 0.46875 -1.21875 L 0.46875 0 L 0.21875 0 Z M 0.21875 -1.75 "/></g></g></g><g fill="#8698ab" fill-opacity="1"><g transform="translate(74.1435, 23.35701)"><g><path d="M 1.09375 -1.296875 C 1.082031 -1.347656 1.054688 -1.390625 1.015625 -1.421875 C 0.984375 -1.453125 0.941406 -1.472656 0.890625 -1.484375 C 0.835938 -1.503906 0.785156 -1.515625 0.734375 -1.515625 C 0.679688 -1.515625 0.625 -1.503906 0.5625 -1.484375 C 0.5 -1.460938 0.453125 -1.429688 0.421875 -1.390625 C 0.398438 -1.367188 0.382812 -1.34375 0.375 -1.3125 C 0.375 -1.289062 0.375 -1.269531 0.375 -1.25 C 0.375 -1.1875 0.390625 -1.132812 0.421875 -1.09375 C 0.460938 -1.0625 0.515625 -1.039062 0.578125 -1.03125 C 0.640625 -1.019531 0.703125 -1.007812 0.765625 -1 C 0.828125 -1 0.890625 -0.988281 0.953125 -0.96875 C 1.015625 -0.957031 1.070312 -0.9375 1.125 -0.90625 C 1.1875 -0.882812 1.238281 -0.847656 1.28125 -0.796875 C 1.320312 -0.753906 1.351562 -0.695312 1.375 -0.625 C 1.382812 -0.582031 1.390625 -0.546875 1.390625 -0.515625 C 1.390625 -0.429688 1.367188 -0.351562 1.328125 -0.28125 C 1.296875 -0.21875 1.25 -0.164062 1.1875 -0.125 C 1.125 -0.0820312 1.050781 -0.046875 0.96875 -0.015625 C 0.894531 0.00390625 0.816406 0.015625 0.734375 0.015625 C 0.671875 0.015625 0.601562 0.00390625 0.53125 -0.015625 C 0.457031 -0.0351562 0.390625 -0.0625 0.328125 -0.09375 C 0.273438 -0.132812 0.226562 -0.1875 0.1875 -0.25 C 0.144531 -0.3125 0.117188 -0.378906 0.109375 -0.453125 L 0.109375 -0.5 L 0.359375 -0.515625 L 0.359375 -0.46875 L 0.359375 -0.484375 C 0.367188 -0.429688 0.390625 -0.382812 0.421875 -0.34375 C 0.460938 -0.3125 0.507812 -0.285156 0.5625 -0.265625 C 0.625 -0.242188 0.679688 -0.234375 0.734375 -0.234375 C 0.796875 -0.234375 0.859375 -0.242188 0.921875 -0.265625 C 0.984375 -0.285156 1.03125 -0.316406 1.0625 -0.359375 C 1.101562 -0.410156 1.125 -0.460938 1.125 -0.515625 C 1.125 -0.535156 1.125 -0.554688 1.125 -0.578125 C 1.113281 -0.617188 1.085938 -0.648438 1.046875 -0.671875 C 1.015625 -0.703125 0.96875 -0.722656 0.90625 -0.734375 C 0.851562 -0.742188 0.796875 -0.75 0.734375 -0.75 C 0.671875 -0.757812 0.601562 -0.769531 0.53125 -0.78125 C 0.457031 -0.800781 0.390625 -0.828125 0.328125 -0.859375 C 0.273438 -0.890625 0.226562 -0.929688 0.1875 -0.984375 C 0.144531 -1.035156 0.125 -1.109375 0.125 -1.203125 C 0.125 -1.210938 0.125 -1.21875 0.125 -1.21875 C 0.125 -1.226562 0.125 -1.238281 0.125 -1.25 C 0.125 -1.351562 0.15625 -1.445312 0.21875 -1.53125 C 0.269531 -1.613281 0.34375 -1.671875 0.4375 -1.703125 C 0.539062 -1.742188 0.644531 -1.765625 0.75 -1.765625 C 0.832031 -1.765625 0.914062 -1.75 1 -1.71875 C 1.09375 -1.6875 1.164062 -1.632812 1.21875 -1.5625 C 1.28125 -1.5 1.320312 -1.414062 1.34375 -1.3125 Z M 1.09375 -1.296875 "/></g></g></g></svg>